<svg width="46" height="61" viewBox="0 0 46 61" fill="none" xmlns="http://www.w3.org/2000/svg">
<path d="M22.9383 14.4107C35.6089 14.4107 45.8767 24.7303 45.8767 37.4585C45.8767 50.1866 35.6089 60.5063 22.9383 60.5063C10.2678 60.5063 0 50.1866 0 37.4527C0 24.7188 10.2678 14.4107 22.9383 14.4107ZM23.0478 20.1726C13.5003 20.1726 5.76196 27.9109 5.76196 37.4585C5.76196 47.006 13.5003 54.7443 23.0478 54.7443C32.5954 54.7443 40.3337 47.006 40.3337 37.4585C40.3337 27.9109 32.5954 20.1726 23.0478 20.1726ZM23.0478 24.4941L26.8565 32.2151L35.3784 33.4539L29.2131 39.4579L30.6709 47.9452L23.0478 43.9349L15.4248 47.9395L16.8825 39.4579L10.7172 33.4482L19.2334 32.2093L23.0478 24.4941ZM40.3337 0.00576196V8.6487L36.404 11.9272C33.1428 10.2159 29.5876 9.14999 25.9288 8.78698V0.00576196H40.3337ZM20.1668 0V8.78698C16.508 9.14999 12.9471 10.2159 9.69161 11.9215L5.76196 8.6487V0.00576196L20.1668 0Z" fill="black"/>
</svg>
