<svg width="58" height="58" viewBox="0 0 58 58" fill="none" xmlns="http://www.w3.org/2000/svg">
<path d="M28.8098 25.9288C36.767 25.9288 43.2147 32.3764 43.2147 40.3337V57.6196H37.4527V40.3337C37.4527 35.7587 33.8861 31.9731 29.3168 31.708L28.8098 31.6908C24.2348 31.6908 20.4492 35.2574 20.1841 39.8266L20.1668 40.3337V57.6196H14.4049V40.3337C14.4049 32.3764 20.8525 25.9288 28.8098 25.9288ZM10.0834 34.5717C10.8843 34.5717 11.668 34.6697 12.417 34.8425C11.9272 36.3118 11.6334 37.833 11.547 39.383L11.5239 40.3337V40.5815C11.1955 40.4604 10.8498 40.3855 10.4983 40.351L10.0834 40.3337C7.85931 40.3337 5.9982 42.0219 5.77924 44.2403L5.76196 44.6552V57.6196H0V44.6552C0 39.0891 4.51737 34.5717 10.0834 34.5717ZM47.5361 34.5717C53.1022 34.5717 57.6196 39.0891 57.6196 44.6552V57.6196H51.8576V44.6552C51.8576 42.431 50.1693 40.5699 47.951 40.3567L47.5361 40.3337C47.0291 40.3337 46.5451 40.4201 46.0956 40.5757V40.3337C46.0956 38.415 45.7845 36.5711 45.2083 34.8483C45.9516 34.6697 46.7352 34.5717 47.5361 34.5717ZM10.0834 17.2859C14.0592 17.2859 17.2859 20.5126 17.2859 24.4883C17.2859 28.4641 14.0592 31.6908 10.0834 31.6908C6.10767 31.6908 2.88098 28.4641 2.88098 24.4883C2.88098 20.5126 6.10767 17.2859 10.0834 17.2859ZM47.5361 17.2859C51.5119 17.2859 54.7386 20.5126 54.7386 24.4883C54.7386 28.4641 51.5119 31.6908 47.5361 31.6908C43.5604 31.6908 40.3337 28.4641 40.3337 24.4883C40.3337 20.5126 43.5604 17.2859 47.5361 17.2859ZM10.0834 23.0478C9.28827 23.0478 8.64293 23.6932 8.64293 24.4883C8.64293 25.2835 9.28827 25.9288 10.0834 25.9288C10.8786 25.9288 11.5239 25.2835 11.5239 24.4883C11.5239 23.6932 10.8786 23.0478 10.0834 23.0478ZM47.5361 23.0478C46.741 23.0478 46.0956 23.6932 46.0956 24.4883C46.0956 25.2835 46.741 25.9288 47.5361 25.9288C48.3313 25.9288 48.9766 25.2835 48.9766 24.4883C48.9766 23.6932 48.3313 23.0478 47.5361 23.0478ZM28.8098 0C35.1767 0 40.3337 5.15695 40.3337 11.5239C40.3337 17.8909 35.1767 23.0478 28.8098 23.0478C22.4428 23.0478 17.2859 17.8909 17.2859 11.5239C17.2859 5.15695 22.4428 0 28.8098 0ZM28.8098 5.76196C25.6292 5.76196 23.0478 8.34331 23.0478 11.5239C23.0478 14.7045 25.6292 17.2859 28.8098 17.2859C31.9904 17.2859 34.5717 14.7045 34.5717 11.5239C34.5717 8.34331 31.9904 5.76196 28.8098 5.76196Z" fill="black"/>
</svg>
