<svg width="61" height="61" viewBox="0 0 61 61" fill="none" xmlns="http://www.w3.org/2000/svg">
<path d="M0 60.5005C0 47.7724 10.3197 37.4527 23.0478 37.4527C35.776 37.4527 46.0956 47.7724 46.0956 60.5005H40.3337C40.3337 50.953 32.5954 43.2147 23.0478 43.2147C13.5003 43.2147 5.76196 50.953 5.76196 60.5005H0ZM23.0478 34.5717C13.4945 34.5717 5.76196 26.8392 5.76196 17.2859C5.76196 7.73254 13.4945 0 23.0478 0C32.6011 0 40.3337 7.73254 40.3337 17.2859C40.3337 26.8392 32.6011 34.5717 23.0478 34.5717ZM23.0478 28.8098C29.4148 28.8098 34.5717 23.6528 34.5717 17.2859C34.5717 10.9189 29.4148 5.76196 23.0478 5.76196C16.6809 5.76196 11.5239 10.9189 11.5239 17.2859C11.5239 23.6528 16.6809 28.8098 23.0478 28.8098ZM46.9138 39.4752C55.1822 43.2031 60.5005 51.4312 60.5005 60.5005H54.7386C54.7386 53.6957 50.7513 47.5246 44.5457 44.7358L46.9138 39.4752ZM44.9317 6.95468C50.8665 9.39775 54.7386 15.1885 54.7386 21.6073C54.7386 29.8008 48.4926 36.646 40.3337 37.3893V31.5928C45.8479 30.8034 49.6738 25.6926 48.8844 20.1841C48.4119 16.8768 46.3319 14.0188 43.3299 12.5553L44.9317 6.95468Z" fill="black"/>
</svg>
